<?xml version="1.0"?>
<svg version="1.1" xmlns="http://www.w3.org/2000/svg" xmlns:xlink="http://www.w3.org/1999/xlink" width="640" height="480">
    <desc iVinci="yes" version="4.5" gridStep="20" showGrid="no" snapToGrid="no" codePlatform="0"/>
    <g id="Layer1" opacity="1">
        <g id="Shape1">
            <desc shapeID="1" type="2" basicInfo-basicType="0" basicInfo-roundedRectRadius="12" basicInfo-polygonSides="6" basicInfo-starPoints="5" bounding="rect(-276.5,-37.5,553,75)" text="To Do List" font-familyName="Helvetica" font-pixelSize="60" font-bold="1" font-underline="0" font-alignment="1" strokeStyle="0" markerStart="0" markerEnd="0" shadowEnabled="0" shadowOffsetX="0" shadowOffsetY="2" shadowBlur="4" shadowOpacity="160" blurEnabled="0" blurRadius="4" transform="matrix(1,0,0,1,328,53)" pers-center="0,0" pers-size="0,0" pers-start="0,0" pers-end="0,0" locked="0" mesh="" flag=""/>
            <path id="shapePath1" d="M219.572,25.5195 L219.572,33.166 L206.652,33.166 L206.652,68.7031 L197.57,68.7031 L197.57,33.166 L184.592,33.166 L184.592,25.5195 L219.572,25.5195 M239.691,60.207 C241,58.4688 241.654,55.998 241.654,52.7949 C241.654,49.5918 241,47.126 239.691,45.3975 C238.383,43.6689 236.508,42.8047 234.066,42.8047 C231.625,42.8047 229.745,43.6689 228.427,45.3975 C227.108,47.126 226.449,49.5918 226.449,52.7949 C226.449,55.998 227.108,58.4688 228.427,60.207 C229.745,61.9453 231.625,62.8145 234.066,62.8145 C236.508,62.8145 238.383,61.9453 239.691,60.207 M246.371,64.8213 C243.676,68.1514 239.584,69.8164 234.096,69.8164 C228.607,69.8164 224.516,68.1514 221.82,64.8213 C219.125,61.4912 217.777,57.4824 217.777,52.7949 C217.777,48.1855 219.125,44.1914 221.82,40.8125 C224.516,37.4336 228.607,35.7441 234.096,35.7441 C239.584,35.7441 243.676,37.4336 246.371,40.8125 C249.066,44.1914 250.414,48.1855 250.414,52.7949 C250.414,57.4824 249.066,61.4912 246.371,64.8213 M282.471,33.0195 L282.471,61.2031 L290.791,61.2031 C295.049,61.2031 298.018,59.1035 299.697,54.9043 C300.615,52.5996 301.074,49.8555 301.074,46.6719 C301.074,42.2773 300.386,38.9033 299.009,36.5498 C297.632,34.1963 294.893,33.0195 290.791,33.0195 L282.471,33.0195 M298.994,26.457 C302.021,27.4531 304.473,29.2793 306.348,31.9355 C307.852,34.084 308.877,36.4082 309.424,38.9082 C309.971,41.4082 310.244,43.791 310.244,46.0566 C310.244,51.7988 309.092,56.6621 306.787,60.6465 C303.662,66.0176 298.838,68.7031 292.314,68.7031 L273.711,68.7031 L273.711,25.5195 L292.314,25.5195 C294.99,25.5586 297.217,25.8711 298.994,26.457 M336.316,60.207 C337.625,58.4688 338.279,55.998 338.279,52.7949 C338.279,49.5918 337.625,47.126 336.316,45.3975 C335.008,43.6689 333.133,42.8047 330.691,42.8047 C328.25,42.8047 326.37,43.6689 325.052,45.3975 C323.733,47.126 323.074,49.5918 323.074,52.7949 C323.074,55.998 323.733,58.4688 325.052,60.207 C326.37,61.9453 328.25,62.8145 330.691,62.8145 C333.133,62.8145 335.008,61.9453 336.316,60.207 M342.996,64.8213 C340.301,68.1514 336.209,69.8164 330.721,69.8164 C325.232,69.8164 321.141,68.1514 318.445,64.8213 C315.75,61.4912 314.402,57.4824 314.402,52.7949 C314.402,48.1855 315.75,44.1914 318.445,40.8125 C321.141,37.4336 325.232,35.7441 330.721,35.7441 C336.209,35.7441 340.301,37.4336 342.996,40.8125 C345.691,44.1914 347.039,48.1855 347.039,52.7949 C347.039,57.4824 345.691,61.4912 342.996,64.8213 M370.336,25.5195 L379.359,25.5195 L379.359,60.9395 L400.746,60.9395 L400.746,68.7031 L370.336,68.7031 L370.336,25.5195 M414.887,32.9609 L406.42,32.9609 L406.42,25.2559 L414.887,25.2559 L414.887,32.9609 M406.42,36.7695 L414.887,36.7695 L414.887,68.7031 L406.42,68.7031 L406.42,36.7695 M429.463,58.5078 C429.639,59.9922 430.02,61.0469 430.605,61.6719 C431.641,62.7852 433.555,63.3418 436.348,63.3418 C437.988,63.3418 439.292,63.0977 440.259,62.6094 C441.226,62.1211 441.709,61.3887 441.709,60.4121 C441.709,59.4746 441.318,58.7617 440.537,58.2734 C439.756,57.7852 436.855,56.9453 431.836,55.7539 C428.223,54.8555 425.674,53.7324 424.189,52.3848 C422.705,51.0566 421.963,49.1426 421.963,46.6426 C421.963,43.6934 423.12,41.1592 425.435,39.04 C427.749,36.9209 431.006,35.8613 435.205,35.8613 C439.189,35.8613 442.437,36.6572 444.946,38.249 C447.456,39.8408 448.896,42.5898 449.268,46.4961 L440.918,46.4961 C440.801,45.4219 440.498,44.5723 440.01,43.9473 C439.092,42.8145 437.529,42.248 435.322,42.248 C433.506,42.248 432.212,42.5312 431.44,43.0977 C430.669,43.6641 430.283,44.3281 430.283,45.0898 C430.283,46.0469 430.693,46.7402 431.514,47.1699 C432.334,47.6191 435.234,48.3906 440.215,49.4844 C443.535,50.2656 446.025,51.4473 447.686,53.0293 C449.326,54.6309 450.146,56.6328 450.146,59.0352 C450.146,62.1992 448.97,64.7822 446.616,66.7842 C444.263,68.7861 440.625,69.7871 435.703,69.7871 C430.684,69.7871 426.978,68.7275 424.585,66.6084 C422.192,64.4893 420.996,61.7891 420.996,58.5078 L429.463,58.5078 M453.037,43.0098 L453.037,37.0625 L457.49,37.0625 L457.49,28.1562 L465.752,28.1562 L465.752,37.0625 L470.938,37.0625 L470.938,43.0098 L465.752,43.0098 L465.752,59.8848 C465.752,61.1934 465.918,62.0088 466.25,62.3311 C466.582,62.6533 467.598,62.8145 469.297,62.8145 C469.551,62.8145 469.819,62.8096 470.103,62.7998 C470.386,62.79 470.664,62.7754 470.938,62.7559 L470.938,68.9961 L466.982,69.1426 C463.037,69.2793 460.342,68.5957 458.896,67.0918 C457.959,66.1348 457.49,64.6602 457.49,62.668 L457.49,43.0098 L453.037,43.0098 Z" style="stroke:none;fill-rule:nonzero;fill:#000000;fill-opacity:1;"/>
        </g>
    </g>
</svg>
